<svg width="199" height="55" viewBox="0 0 199 55" fill="none" xmlns="http://www.w3.org/2000/svg">
<rect width="199" height="55" rx="5" fill="#27292C"/>
<path d="M24.592 33V22.78H26.538V33H24.592ZM26.258 33V31.32H30.892V33H26.258ZM26.258 28.646V26.966H30.528V28.646H26.258ZM26.258 24.46V22.78H30.78V24.46H26.258ZM31.9099 33L34.3879 28.94L34.3459 29.262L32.0079 25.398H34.1219L35.6479 28.072H35.8579L37.2999 25.398H39.2879L37.0759 29.248L37.1179 28.968L39.7359 33H37.6219L35.8159 30.13H35.6059L33.8979 33H31.9099ZM44.2189 33.266C43.5656 33.266 42.9916 33.154 42.4969 32.93C42.0116 32.706 41.6056 32.4073 41.2789 32.034C40.9616 31.6513 40.7189 31.2267 40.5509 30.76C40.3923 30.2933 40.3129 29.8173 40.3129 29.332V29.066C40.3129 28.562 40.3923 28.0767 40.5509 27.61C40.7189 27.134 40.9616 26.714 41.2789 26.35C41.6056 25.9767 42.0069 25.6827 42.4829 25.468C42.9589 25.244 43.5096 25.132 44.1349 25.132C44.9563 25.132 45.6423 25.314 46.1929 25.678C46.7529 26.0327 47.1729 26.504 47.4529 27.092C47.7329 27.6707 47.8729 28.296 47.8729 28.968V29.668H41.1389V28.478H46.6549L46.0529 29.066C46.0529 28.5807 45.9829 28.1653 45.8429 27.82C45.7029 27.4747 45.4883 27.2087 45.1989 27.022C44.9189 26.8353 44.5643 26.742 44.1349 26.742C43.7056 26.742 43.3416 26.84 43.0429 27.036C42.7443 27.232 42.5156 27.5167 42.3569 27.89C42.2076 28.254 42.1329 28.6927 42.1329 29.206C42.1329 29.682 42.2076 30.1067 42.3569 30.48C42.5063 30.844 42.7349 31.1333 43.0429 31.348C43.3509 31.5533 43.7429 31.656 44.2189 31.656C44.6949 31.656 45.0823 31.5627 45.3809 31.376C45.6796 31.18 45.8709 30.942 45.9549 30.662H47.7469C47.6349 31.1847 47.4203 31.642 47.1029 32.034C46.7856 32.426 46.3796 32.7293 45.8849 32.944C45.3996 33.1587 44.8443 33.266 44.2189 33.266ZM49.4986 33V25.398H51.0386V28.618H50.9966C50.9966 27.526 51.2299 26.7 51.6966 26.14C52.1632 25.58 52.8492 25.3 53.7546 25.3H54.0346V26.994H53.5026C52.8492 26.994 52.3406 27.1713 51.9766 27.526C51.6219 27.8713 51.4446 28.3753 51.4446 29.038V33H49.4986ZM58.6558 33.266C57.9931 33.266 57.4191 33.154 56.9338 32.93C56.4578 32.706 56.0564 32.4073 55.7298 32.034C55.4124 31.6607 55.1744 31.2407 55.0158 30.774C54.8571 30.3073 54.7778 29.8313 54.7778 29.346V29.08C54.7778 28.5667 54.8571 28.0767 55.0158 27.61C55.1838 27.134 55.4311 26.714 55.7578 26.35C56.0844 25.9767 56.4858 25.6827 56.9618 25.468C57.4471 25.244 58.0071 25.132 58.6418 25.132C59.3044 25.132 59.8971 25.2627 60.4198 25.524C60.9424 25.776 61.3578 26.1307 61.6658 26.588C61.9831 27.0453 62.1604 27.5773 62.1978 28.184H60.3078C60.2611 27.792 60.0931 27.4653 59.8038 27.204C59.5238 26.9427 59.1364 26.812 58.6418 26.812C58.2124 26.812 57.8531 26.9147 57.5638 27.12C57.2838 27.3253 57.0738 27.61 56.9338 27.974C56.7938 28.3287 56.7238 28.7393 56.7238 29.206C56.7238 29.654 56.7891 30.06 56.9198 30.424C57.0598 30.788 57.2698 31.0727 57.5498 31.278C57.8391 31.4833 58.2078 31.586 58.6558 31.586C58.9918 31.586 59.2811 31.5253 59.5238 31.404C59.7664 31.2827 59.9578 31.1147 60.0978 30.9C60.2471 30.6853 60.3404 30.4427 60.3778 30.172H62.2678C62.2304 30.788 62.0484 31.3293 61.7218 31.796C61.4044 32.2533 60.9798 32.6127 60.4478 32.874C59.9251 33.1353 59.3278 33.266 58.6558 33.266ZM64.1907 33V25.398H66.1367V33H64.1907ZM63.1267 26.854V25.398H66.1367V26.854H63.1267ZM64.9047 24.488C64.522 24.488 64.2374 24.39 64.0507 24.194C63.8734 23.9887 63.7847 23.7367 63.7847 23.438C63.7847 23.1207 63.8734 22.864 64.0507 22.668C64.2374 22.472 64.522 22.374 64.9047 22.374C65.2874 22.374 65.5674 22.472 65.7447 22.668C65.922 22.864 66.0107 23.1207 66.0107 23.438C66.0107 23.7367 65.922 23.9887 65.7447 24.194C65.5674 24.39 65.2874 24.488 64.9047 24.488ZM71.6834 33.098C70.9834 33.098 70.4048 33.0093 69.9474 32.832C69.4994 32.6453 69.1634 32.3373 68.9394 31.908C68.7154 31.4693 68.6034 30.8813 68.6034 30.144L68.6174 23.256H70.4374L70.4234 30.27C70.4234 30.6433 70.5214 30.9327 70.7174 31.138C70.9228 31.334 71.2121 31.432 71.5854 31.432H72.7754V33.098H71.6834ZM67.3994 26.826V25.398H72.7754V26.826H67.3994ZM78.9874 33V30.746H78.6654V28.24C78.6654 27.8013 78.5581 27.4747 78.3434 27.26C78.1287 27.0453 77.7974 26.938 77.3494 26.938C77.1161 26.938 76.8361 26.9427 76.5094 26.952C76.1827 26.9613 75.8514 26.9753 75.5154 26.994C75.1887 27.0033 74.8947 27.0173 74.6334 27.036V25.384C74.8481 25.3653 75.0907 25.3467 75.3614 25.328C75.6321 25.3093 75.9074 25.3 76.1874 25.3C76.4767 25.2907 76.7474 25.286 76.9994 25.286C77.7834 25.286 78.4321 25.3887 78.9454 25.594C79.4681 25.7993 79.8601 26.1213 80.1214 26.56C80.3921 26.9987 80.5274 27.5727 80.5274 28.282V33H78.9874ZM76.5374 33.196C75.9867 33.196 75.5014 33.098 75.0814 32.902C74.6707 32.706 74.3487 32.426 74.1154 32.062C73.8914 31.698 73.7794 31.2593 73.7794 30.746C73.7794 30.186 73.9147 29.7287 74.1854 29.374C74.4654 29.0193 74.8527 28.7533 75.3474 28.576C75.8514 28.3987 76.4394 28.31 77.1114 28.31H78.8754V29.472H77.0834C76.6354 29.472 76.2901 29.584 76.0474 29.808C75.8141 30.0227 75.6974 30.3027 75.6974 30.648C75.6974 30.9933 75.8141 31.2733 76.0474 31.488C76.2901 31.7027 76.6354 31.81 77.0834 31.81C77.3541 31.81 77.6014 31.7633 77.8254 31.67C78.0587 31.5673 78.2501 31.3993 78.3994 31.166C78.5581 30.9233 78.6467 30.5967 78.6654 30.186L79.1414 30.732C79.0947 31.264 78.9641 31.712 78.7494 32.076C78.5441 32.44 78.2547 32.72 77.8814 32.916C77.5174 33.1027 77.0694 33.196 76.5374 33.196ZM85.9159 33.098C85.2159 33.098 84.6372 33.0093 84.1799 32.832C83.7319 32.6453 83.3959 32.3373 83.1719 31.908C82.9479 31.4693 82.8359 30.8813 82.8359 30.144L82.8499 23.256H84.6699L84.6559 30.27C84.6559 30.6433 84.7539 30.9327 84.9499 31.138C85.1552 31.334 85.4445 31.432 85.8179 31.432H87.0079V33.098H85.9159ZM81.6319 26.826V25.398H87.0079V26.826H81.6319ZM89.0052 33V25.398H90.9512V33H89.0052ZM87.9412 26.854V25.398H90.9512V26.854H87.9412ZM89.7192 24.488C89.3365 24.488 89.0518 24.39 88.8652 24.194C88.6878 23.9887 88.5992 23.7367 88.5992 23.438C88.5992 23.1207 88.6878 22.864 88.8652 22.668C89.0518 22.472 89.3365 22.374 89.7192 22.374C90.1018 22.374 90.3818 22.472 90.5592 22.668C90.7365 22.864 90.8252 23.1207 90.8252 23.438C90.8252 23.7367 90.7365 23.9887 90.5592 24.194C90.3818 24.39 90.1018 24.488 89.7192 24.488ZM96.8479 33.266C96.1759 33.266 95.5832 33.1587 95.0699 32.944C94.5566 32.7293 94.1226 32.44 93.7679 32.076C93.4132 31.7027 93.1426 31.2827 92.9559 30.816C92.7786 30.3493 92.6899 29.864 92.6899 29.36V29.066C92.6899 28.5433 92.7832 28.0487 92.9699 27.582C93.1659 27.106 93.4412 26.686 93.7959 26.322C94.1599 25.9487 94.5986 25.6593 95.1119 25.454C95.6252 25.2393 96.2039 25.132 96.8479 25.132C97.4919 25.132 98.0706 25.2393 98.5839 25.454C99.0972 25.6593 99.5312 25.9487 99.8859 26.322C100.25 26.686 100.525 27.106 100.712 27.582C100.899 28.0487 100.992 28.5433 100.992 29.066V29.36C100.992 29.864 100.899 30.3493 100.712 30.816C100.535 31.2827 100.269 31.7027 99.9139 32.076C99.5592 32.44 99.1252 32.7293 98.6119 32.944C98.0986 33.1587 97.5106 33.266 96.8479 33.266ZM96.8479 31.6C97.3239 31.6 97.7252 31.4973 98.0519 31.292C98.3786 31.0773 98.6259 30.7927 98.7939 30.438C98.9619 30.074 99.0459 29.6633 99.0459 29.206C99.0459 28.7393 98.9572 28.3287 98.7799 27.974C98.6119 27.61 98.3599 27.3253 98.0239 27.12C97.6972 26.9053 97.3052 26.798 96.8479 26.798C96.3906 26.798 95.9939 26.9053 95.6579 27.12C95.3312 27.3253 95.0792 27.61 94.9019 27.974C94.7246 28.3287 94.6359 28.7393 94.6359 29.206C94.6359 29.6633 94.7199 30.074 94.8879 30.438C95.0652 30.7927 95.3172 31.0773 95.6439 31.292C95.9706 31.4973 96.3719 31.6 96.8479 31.6ZM102.696 33V25.398H104.236V28.66H104.096C104.096 27.8853 104.199 27.2413 104.404 26.728C104.609 26.2053 104.913 25.8133 105.314 25.552C105.725 25.2907 106.233 25.16 106.84 25.16H106.924C107.829 25.16 108.515 25.454 108.982 26.042C109.449 26.6207 109.682 27.4887 109.682 28.646V33H107.736V28.478C107.736 28.0113 107.601 27.6333 107.33 27.344C107.069 27.0547 106.705 26.91 106.238 26.91C105.762 26.91 105.375 27.0593 105.076 27.358C104.787 27.6473 104.642 28.0393 104.642 28.534V33H102.696Z" fill="url(#paint0_linear_40_295)"/>
<circle cx="165" cy="28" r="16" fill="#363A3E"/>
<path d="M172 21L167 35L164.5 28.5L158 26L172 21Z" fill="#FD7566"/>
<defs>
<linearGradient id="paint0_linear_40_295" x1="26" y1="30" x2="113.5" y2="29.5" gradientUnits="userSpaceOnUse">
<stop stop-color="#0CCE84"/>
<stop offset="0.962721" stop-color="#AE8EF9"/>
</linearGradient>
</defs>
</svg>
