<svg width="239" height="62" viewBox="0 0 239 62" fill="none" xmlns="http://www.w3.org/2000/svg">
<rect width="239" height="62" rx="13" fill="black" fill-opacity="0.7"/>
<path d="M23.894 36.252C22.9607 36.252 22.1627 36.0933 21.5 35.776C20.8467 35.4493 20.3147 35.0247 19.904 34.502C19.5027 33.97 19.204 33.4007 19.008 32.794C18.8213 32.178 18.728 31.5853 18.728 31.016V30.708C18.728 30.0827 18.826 29.462 19.022 28.846C19.218 28.23 19.5167 27.67 19.918 27.166C20.3287 26.662 20.856 26.256 21.5 25.948C22.1533 25.64 22.9233 25.486 23.81 25.486C24.734 25.486 25.532 25.6493 26.204 25.976C26.876 26.3027 27.408 26.76 27.8 27.348C28.2013 27.9267 28.4393 28.6127 28.514 29.406H26.82C26.7453 28.8833 26.568 28.4493 26.288 28.104C26.0173 27.7493 25.6673 27.4833 25.238 27.306C24.818 27.1287 24.342 27.04 23.81 27.04C23.2593 27.04 22.7693 27.138 22.34 27.334C21.92 27.53 21.57 27.8007 21.29 28.146C21.01 28.4913 20.7953 28.8973 20.646 29.364C20.506 29.8213 20.436 30.3253 20.436 30.876C20.436 31.3987 20.506 31.8933 20.646 32.36C20.7953 32.8173 21.0147 33.2233 21.304 33.578C21.5933 33.9327 21.9527 34.208 22.382 34.404C22.8207 34.6 23.3247 34.698 23.894 34.698C24.7153 34.698 25.406 34.4973 25.966 34.096C26.526 33.6853 26.8667 33.102 26.988 32.346H28.696C28.6027 33.0647 28.36 33.7227 27.968 34.32C27.576 34.908 27.0393 35.3793 26.358 35.734C25.6767 36.0793 24.8553 36.252 23.894 36.252ZM30.3603 36V28.454H31.6623V31.604H31.6063C31.6063 30.5213 31.8443 29.714 32.3203 29.182C32.7963 28.6407 33.5009 28.37 34.4343 28.37H34.7003V29.812H34.1963C33.4869 29.812 32.9409 30.0033 32.5583 30.386C32.1849 30.7593 31.9983 31.296 31.9983 31.996V36H30.3603ZM39.3788 36.252C38.7254 36.252 38.1561 36.14 37.6708 35.916C37.1854 35.692 36.7888 35.398 36.4808 35.034C36.1728 34.6607 35.9394 34.2453 35.7808 33.788C35.6314 33.3213 35.5568 32.8453 35.5568 32.36V32.094C35.5568 31.5993 35.6314 31.1233 35.7808 30.666C35.9394 30.1993 36.1728 29.784 36.4808 29.42C36.7888 29.0467 37.1761 28.7527 37.6428 28.538C38.1188 28.314 38.6694 28.202 39.2948 28.202C40.1068 28.202 40.7834 28.3793 41.3248 28.734C41.8661 29.0887 42.2721 29.5507 42.5428 30.12C42.8134 30.68 42.9488 31.2867 42.9488 31.94V32.598H36.2568V31.492H41.8428L41.3948 32.052C41.3948 31.548 41.3154 31.114 41.1568 30.75C40.9981 30.3767 40.7648 30.092 40.4568 29.896C40.1488 29.6907 39.7614 29.588 39.2948 29.588C38.8094 29.588 38.4034 29.7 38.0768 29.924C37.7501 30.148 37.5074 30.456 37.3488 30.848C37.1901 31.24 37.1108 31.702 37.1108 32.234C37.1108 32.738 37.1901 33.1907 37.3488 33.592C37.5074 33.984 37.7548 34.2967 38.0908 34.53C38.4268 34.754 38.8561 34.866 39.3788 34.866C39.9014 34.866 40.3308 34.754 40.6668 34.53C41.0028 34.2967 41.2081 34.026 41.2828 33.718H42.8088C42.7061 34.2313 42.4961 34.6793 42.1788 35.062C41.8708 35.4447 41.4788 35.7387 41.0028 35.944C40.5268 36.1493 39.9854 36.252 39.3788 36.252ZM49.2657 36V33.746H48.9997V31.198C48.9997 30.7313 48.8784 30.3767 48.6357 30.134C48.3931 29.8913 48.0337 29.77 47.5577 29.77C47.2964 29.77 47.0071 29.7747 46.6897 29.784C46.3724 29.7933 46.0597 29.8073 45.7517 29.826C45.4531 29.8353 45.1871 29.8493 44.9537 29.868V28.454C45.1591 28.4353 45.3831 28.4213 45.6257 28.412C45.8777 28.3933 46.1344 28.3793 46.3957 28.37C46.6664 28.3607 46.9231 28.356 47.1657 28.356C47.9311 28.356 48.5657 28.454 49.0697 28.65C49.5737 28.846 49.9471 29.1587 50.1897 29.588C50.4417 30.008 50.5677 30.5727 50.5677 31.282V36H49.2657ZM46.8157 36.196C46.2651 36.196 45.7844 36.1027 45.3737 35.916C44.9631 35.72 44.6457 35.44 44.4217 35.076C44.1977 34.7027 44.0857 34.2593 44.0857 33.746C44.0857 33.2047 44.2117 32.7567 44.4637 32.402C44.7251 32.0473 45.0937 31.7813 45.5697 31.604C46.0457 31.4267 46.6151 31.338 47.2777 31.338H49.1677V32.416H47.2357C46.7411 32.416 46.3631 32.5373 46.1017 32.78C45.8404 33.0133 45.7097 33.3213 45.7097 33.704C45.7097 34.0867 45.8404 34.3947 46.1017 34.628C46.3631 34.852 46.7411 34.964 47.2357 34.964C47.5251 34.964 47.8004 34.9127 48.0617 34.81C48.3231 34.698 48.5377 34.516 48.7057 34.264C48.8831 34.012 48.9811 33.6573 48.9997 33.2L49.4197 33.746C49.3731 34.278 49.2424 34.726 49.0277 35.09C48.8224 35.4447 48.5331 35.72 48.1597 35.916C47.7957 36.1027 47.3477 36.196 46.8157 36.196ZM55.9445 36.084C55.3192 36.084 54.7918 36 54.3625 35.832C53.9332 35.664 53.6065 35.3747 53.3825 34.964C53.1678 34.5533 53.0605 33.998 53.0605 33.298V26.256H54.6145V33.438C54.6145 33.83 54.7172 34.1333 54.9225 34.348C55.1372 34.5533 55.4358 34.656 55.8185 34.656H57.0785V36.084H55.9445ZM51.8145 29.672V28.454H57.0785V29.672H51.8145ZM62.1014 36.252C61.4481 36.252 60.8788 36.14 60.3934 35.916C59.9081 35.692 59.5114 35.398 59.2034 35.034C58.8954 34.6607 58.6621 34.2453 58.5034 33.788C58.3541 33.3213 58.2794 32.8453 58.2794 32.36V32.094C58.2794 31.5993 58.3541 31.1233 58.5034 30.666C58.6621 30.1993 58.8954 29.784 59.2034 29.42C59.5114 29.0467 59.8988 28.7527 60.3654 28.538C60.8414 28.314 61.3921 28.202 62.0174 28.202C62.8294 28.202 63.5061 28.3793 64.0474 28.734C64.5888 29.0887 64.9948 29.5507 65.2654 30.12C65.5361 30.68 65.6714 31.2867 65.6714 31.94V32.598H58.9794V31.492H64.5654L64.1174 32.052C64.1174 31.548 64.0381 31.114 63.8794 30.75C63.7208 30.3767 63.4874 30.092 63.1794 29.896C62.8714 29.6907 62.4841 29.588 62.0174 29.588C61.5321 29.588 61.1261 29.7 60.7994 29.924C60.4728 30.148 60.2301 30.456 60.0714 30.848C59.9128 31.24 59.8334 31.702 59.8334 32.234C59.8334 32.738 59.9128 33.1907 60.0714 33.592C60.2301 33.984 60.4774 34.2967 60.8134 34.53C61.1494 34.754 61.5788 34.866 62.1014 34.866C62.6241 34.866 63.0534 34.754 63.3894 34.53C63.7254 34.2967 63.9308 34.026 64.0054 33.718H65.5314C65.4288 34.2313 65.2188 34.6793 64.9014 35.062C64.5934 35.4447 64.2014 35.7387 63.7254 35.944C63.2494 36.1493 62.7081 36.252 62.1014 36.252ZM70.6259 36V25.78H72.2779V36H70.6259ZM69.6319 27.04V25.78H72.2779V27.04H69.6319ZM78.2265 36.252C77.5638 36.252 76.9805 36.1447 76.4765 35.93C75.9725 35.706 75.5478 35.412 75.2025 35.048C74.8571 34.684 74.5958 34.2733 74.4185 33.816C74.2411 33.3493 74.1525 32.8687 74.1525 32.374V32.094C74.1525 31.5993 74.2411 31.1187 74.4185 30.652C74.6051 30.1853 74.8711 29.77 75.2165 29.406C75.5711 29.0327 76.0005 28.7387 76.5045 28.524C77.0085 28.3093 77.5825 28.202 78.2265 28.202C78.8705 28.202 79.4398 28.3093 79.9345 28.524C80.4385 28.7387 80.8678 29.0327 81.2225 29.406C81.5771 29.77 81.8431 30.1853 82.0205 30.652C82.2071 31.1187 82.3005 31.5993 82.3005 32.094V32.374C82.3005 32.8687 82.2118 33.3493 82.0345 33.816C81.8571 34.2733 81.5958 34.684 81.2505 35.048C80.9051 35.412 80.4805 35.706 79.9765 35.93C79.4725 36.1447 78.8891 36.252 78.2265 36.252ZM78.2265 34.824C78.7398 34.824 79.1785 34.712 79.5425 34.488C79.9065 34.2547 80.1818 33.942 80.3685 33.55C80.5645 33.158 80.6625 32.7193 80.6625 32.234C80.6625 31.7393 80.5645 31.296 80.3685 30.904C80.1725 30.512 79.8925 30.204 79.5285 29.98C79.1645 29.7467 78.7305 29.63 78.2265 29.63C77.7225 29.63 77.2885 29.7467 76.9245 29.98C76.5605 30.204 76.2805 30.512 76.0845 30.904C75.8885 31.296 75.7905 31.7393 75.7905 32.234C75.7905 32.7193 75.8838 33.158 76.0705 33.55C76.2665 33.942 76.5465 34.2547 76.9105 34.488C77.2745 34.712 77.7131 34.824 78.2265 34.824ZM83.7948 32.794V31.366H89.2268V32.794H83.7948ZM91.4228 36V25.78H93.1028V36H91.4228ZM92.8228 31.59V30.134H97.0648V31.59H92.8228ZM92.8228 27.236V25.78H97.2748V27.236H92.8228ZM99.3571 36V28.454H100.995V36H99.3571ZM98.2511 29.714V28.454H100.995V29.714H98.2511ZM99.8891 27.404C99.5531 27.404 99.3011 27.3153 99.1331 27.138C98.9744 26.9607 98.8951 26.732 98.8951 26.452C98.8951 26.1813 98.9744 25.9573 99.1331 25.78C99.3011 25.5933 99.5531 25.5 99.8891 25.5C100.234 25.5 100.486 25.5933 100.645 25.78C100.813 25.9573 100.897 26.1813 100.897 26.452C100.897 26.732 100.813 26.9607 100.645 27.138C100.486 27.3153 100.234 27.404 99.8891 27.404ZM106.572 36.252C106.031 36.252 105.536 36.154 105.088 35.958C104.65 35.762 104.262 35.4867 103.926 35.132C103.6 34.7773 103.348 34.3667 103.17 33.9C102.993 33.4333 102.904 32.9247 102.904 32.374V32.108C102.904 31.5667 102.988 31.0627 103.156 30.596C103.334 30.12 103.581 29.7047 103.898 29.35C104.216 28.9953 104.594 28.72 105.032 28.524C105.48 28.3187 105.975 28.216 106.516 28.216C107.095 28.216 107.613 28.342 108.07 28.594C108.537 28.8367 108.91 29.2147 109.19 29.728C109.48 30.232 109.638 30.876 109.666 31.66L109.106 30.89V25.78H110.744V36H109.442V32.724H109.806C109.778 33.536 109.61 34.2033 109.302 34.726C109.004 35.2487 108.616 35.636 108.14 35.888C107.664 36.1307 107.142 36.252 106.572 36.252ZM106.88 34.838C107.3 34.838 107.678 34.7447 108.014 34.558C108.36 34.3713 108.635 34.1007 108.84 33.746C109.055 33.382 109.162 32.9573 109.162 32.472V31.87C109.162 31.394 109.055 30.988 108.84 30.652C108.626 30.316 108.346 30.0593 108 29.882C107.655 29.7047 107.277 29.616 106.866 29.616C106.409 29.616 106.003 29.728 105.648 29.952C105.303 30.1667 105.032 30.47 104.836 30.862C104.64 31.254 104.542 31.7113 104.542 32.234C104.542 32.766 104.64 33.228 104.836 33.62C105.042 34.012 105.322 34.3153 105.676 34.53C106.031 34.7353 106.432 34.838 106.88 34.838ZM116.447 36.252C115.794 36.252 115.224 36.14 114.739 35.916C114.254 35.692 113.857 35.398 113.549 35.034C113.241 34.6607 113.008 34.2453 112.849 33.788C112.7 33.3213 112.625 32.8453 112.625 32.36V32.094C112.625 31.5993 112.7 31.1233 112.849 30.666C113.008 30.1993 113.241 29.784 113.549 29.42C113.857 29.0467 114.244 28.7527 114.711 28.538C115.187 28.314 115.738 28.202 116.363 28.202C117.175 28.202 117.852 28.3793 118.393 28.734C118.934 29.0887 119.34 29.5507 119.611 30.12C119.882 30.68 120.017 31.2867 120.017 31.94V32.598H113.325V31.492H118.911L118.463 32.052C118.463 31.548 118.384 31.114 118.225 30.75C118.066 30.3767 117.833 30.092 117.525 29.896C117.217 29.6907 116.83 29.588 116.363 29.588C115.878 29.588 115.472 29.7 115.145 29.924C114.818 30.148 114.576 30.456 114.417 30.848C114.258 31.24 114.179 31.702 114.179 32.234C114.179 32.738 114.258 33.1907 114.417 33.592C114.576 33.984 114.823 34.2967 115.159 34.53C115.495 34.754 115.924 34.866 116.447 34.866C116.97 34.866 117.399 34.754 117.735 34.53C118.071 34.2967 118.276 34.026 118.351 33.718H119.877C119.774 34.2313 119.564 34.6793 119.247 35.062C118.939 35.4447 118.547 35.7387 118.071 35.944C117.595 36.1493 117.054 36.252 116.447 36.252ZM121.868 36V25.78H123.52V36H121.868ZM120.874 27.04V25.78H123.52V27.04H120.874ZM126.291 36V28.454H127.929V36H126.291ZM125.185 29.714V28.454H127.929V29.714H125.185ZM126.823 27.404C126.487 27.404 126.235 27.3153 126.067 27.138C125.908 26.9607 125.829 26.732 125.829 26.452C125.829 26.1813 125.908 25.9573 126.067 25.78C126.235 25.5933 126.487 25.5 126.823 25.5C127.168 25.5 127.42 25.5933 127.579 25.78C127.747 25.9573 127.831 26.1813 127.831 26.452C127.831 26.732 127.747 26.9607 127.579 27.138C127.42 27.3153 127.168 27.404 126.823 27.404ZM133.464 36.084C132.839 36.084 132.311 36 131.882 35.832C131.453 35.664 131.126 35.3747 130.902 34.964C130.687 34.5533 130.58 33.998 130.58 33.298V26.256H132.134V33.438C132.134 33.83 132.237 34.1333 132.442 34.348C132.657 34.5533 132.955 34.656 133.338 34.656H134.598V36.084H133.464ZM129.334 29.672V28.454H134.598V29.672H129.334ZM136.008 38.954V37.512H137.254C137.543 37.512 137.791 37.4747 137.996 37.4C138.201 37.3347 138.369 37.2133 138.5 37.036C138.631 36.868 138.738 36.6393 138.822 36.35L141.02 28.454H142.602L140.222 36.742C140.073 37.2647 139.863 37.6893 139.592 38.016C139.331 38.3427 138.995 38.5807 138.584 38.73C138.183 38.8793 137.697 38.954 137.128 38.954H136.008ZM138.332 35.832V34.502H139.956V35.832H138.332ZM137.926 35.832L135.364 28.454H137.03L139.48 35.832H137.926ZM149.089 36L146.415 25.78H148.151L150.405 34.894L149.803 34.558H151.329L150.671 34.894L152.477 26.186H153.961L151.819 36H149.089ZM155.221 36L152.869 26.186H154.423L156.481 34.894L155.837 34.558H157.363L156.733 34.894L158.735 25.78H160.387L157.979 36H155.221ZM162.166 36V28.454H163.804V36H162.166ZM161.06 29.714V28.454H163.804V29.714H161.06ZM162.698 27.404C162.362 27.404 162.11 27.3153 161.942 27.138C161.783 26.9607 161.704 26.732 161.704 26.452C161.704 26.1813 161.783 25.9573 161.942 25.78C162.11 25.5933 162.362 25.5 162.698 25.5C163.043 25.5 163.295 25.5933 163.454 25.78C163.622 25.9573 163.706 26.1813 163.706 26.452C163.706 26.732 163.622 26.9607 163.454 27.138C163.295 27.3153 163.043 27.404 162.698 27.404ZM166.245 36V28.454H167.547V31.604H167.491C167.491 30.5213 167.729 29.714 168.205 29.182C168.681 28.6407 169.386 28.37 170.319 28.37H170.585V29.812H170.081C169.372 29.812 168.826 30.0033 168.443 30.386C168.07 30.7593 167.883 31.296 167.883 31.996V36H166.245ZM175.264 36.252C174.61 36.252 174.041 36.14 173.556 35.916C173.07 35.692 172.674 35.398 172.366 35.034C172.058 34.6607 171.824 34.2453 171.666 33.788C171.516 33.3213 171.442 32.8453 171.442 32.36V32.094C171.442 31.5993 171.516 31.1233 171.666 30.666C171.824 30.1993 172.058 29.784 172.366 29.42C172.674 29.0467 173.061 28.7527 173.528 28.538C174.004 28.314 174.554 28.202 175.18 28.202C175.992 28.202 176.668 28.3793 177.21 28.734C177.751 29.0887 178.157 29.5507 178.428 30.12C178.698 30.68 178.834 31.2867 178.834 31.94V32.598H172.142V31.492H177.728L177.28 32.052C177.28 31.548 177.2 31.114 177.042 30.75C176.883 30.3767 176.65 30.092 176.342 29.896C176.034 29.6907 175.646 29.588 175.18 29.588C174.694 29.588 174.288 29.7 173.962 29.924C173.635 30.148 173.392 30.456 173.234 30.848C173.075 31.24 172.996 31.702 172.996 32.234C172.996 32.738 173.075 33.1907 173.234 33.592C173.392 33.984 173.64 34.2967 173.976 34.53C174.312 34.754 174.741 34.866 175.264 34.866C175.786 34.866 176.216 34.754 176.552 34.53C176.888 34.2967 177.093 34.026 177.168 33.718H178.694C178.591 34.2313 178.381 34.6793 178.064 35.062C177.756 35.4447 177.364 35.7387 176.888 35.944C176.412 36.1493 175.87 36.252 175.264 36.252ZM180.782 36V28.188C180.782 27.3387 181.011 26.7133 181.468 26.312C181.935 25.9013 182.612 25.696 183.498 25.696H184.45V26.998H183.316C183.008 26.998 182.766 27.0867 182.588 27.264C182.42 27.4413 182.336 27.684 182.336 27.992V36H180.782ZM179.788 29.784V28.566H184.576V29.784H179.788ZM185.892 36V28.454H187.194V31.604H187.138C187.138 30.5213 187.376 29.714 187.852 29.182C188.328 28.6407 189.032 28.37 189.966 28.37H190.232V29.812H189.728C189.018 29.812 188.472 30.0033 188.09 30.386C187.716 30.7593 187.53 31.296 187.53 31.996V36H185.892ZM196.211 36V33.746H195.945V31.198C195.945 30.7313 195.824 30.3767 195.581 30.134C195.338 29.8913 194.979 29.77 194.503 29.77C194.242 29.77 193.952 29.7747 193.635 29.784C193.318 29.7933 193.005 29.8073 192.697 29.826C192.398 29.8353 192.132 29.8493 191.899 29.868V28.454C192.104 28.4353 192.328 28.4213 192.571 28.412C192.823 28.3933 193.08 28.3793 193.341 28.37C193.612 28.3607 193.868 28.356 194.111 28.356C194.876 28.356 195.511 28.454 196.015 28.65C196.519 28.846 196.892 29.1587 197.135 29.588C197.387 30.008 197.513 30.5727 197.513 31.282V36H196.211ZM193.761 36.196C193.21 36.196 192.73 36.1027 192.319 35.916C191.908 35.72 191.591 35.44 191.367 35.076C191.143 34.7027 191.031 34.2593 191.031 33.746C191.031 33.2047 191.157 32.7567 191.409 32.402C191.67 32.0473 192.039 31.7813 192.515 31.604C192.991 31.4267 193.56 31.338 194.223 31.338H196.113V32.416H194.181C193.686 32.416 193.308 32.5373 193.047 32.78C192.786 33.0133 192.655 33.3213 192.655 33.704C192.655 34.0867 192.786 34.3947 193.047 34.628C193.308 34.852 193.686 34.964 194.181 34.964C194.47 34.964 194.746 34.9127 195.007 34.81C195.268 34.698 195.483 34.516 195.651 34.264C195.828 34.012 195.926 33.6573 195.945 33.2L196.365 33.746C196.318 34.278 196.188 34.726 195.973 35.09C195.768 35.4447 195.478 35.72 195.105 35.916C194.741 36.1027 194.293 36.196 193.761 36.196ZM199.796 36V28.454H201.098V31.702H200.944C200.944 30.9553 201.037 30.3253 201.224 29.812C201.42 29.2987 201.709 28.9067 202.092 28.636C202.484 28.3653 202.969 28.23 203.548 28.23H203.618C204.206 28.23 204.691 28.3653 205.074 28.636C205.466 28.9067 205.755 29.2987 205.942 29.812C206.138 30.3253 206.236 30.9553 206.236 31.702H205.788C205.788 30.9553 205.886 30.3253 206.082 29.812C206.278 29.2987 206.572 28.9067 206.964 28.636C207.356 28.3653 207.841 28.23 208.42 28.23H208.49C209.078 28.23 209.568 28.3653 209.96 28.636C210.352 28.9067 210.646 29.2987 210.842 29.812C211.038 30.3253 211.136 30.9553 211.136 31.702V36H209.498V31.464C209.498 30.9133 209.358 30.484 209.078 30.176C208.807 29.868 208.429 29.714 207.944 29.714C207.44 29.714 207.038 29.8773 206.74 30.204C206.441 30.5213 206.292 30.9647 206.292 31.534V36H204.64V31.464C204.64 30.9133 204.504 30.484 204.234 30.176C203.963 29.868 203.585 29.714 203.1 29.714C202.596 29.714 202.19 29.8773 201.882 30.204C201.583 30.5213 201.434 30.9647 201.434 31.534V36H199.796ZM216.703 36.252C216.05 36.252 215.48 36.14 214.995 35.916C214.51 35.692 214.113 35.398 213.805 35.034C213.497 34.6607 213.264 34.2453 213.105 33.788C212.956 33.3213 212.881 32.8453 212.881 32.36V32.094C212.881 31.5993 212.956 31.1233 213.105 30.666C213.264 30.1993 213.497 29.784 213.805 29.42C214.113 29.0467 214.5 28.7527 214.967 28.538C215.443 28.314 215.994 28.202 216.619 28.202C217.431 28.202 218.108 28.3793 218.649 28.734C219.19 29.0887 219.596 29.5507 219.867 30.12C220.138 30.68 220.273 31.2867 220.273 31.94V32.598H213.581V31.492H219.167L218.719 32.052C218.719 31.548 218.64 31.114 218.481 30.75C218.322 30.3767 218.089 30.092 217.781 29.896C217.473 29.6907 217.086 29.588 216.619 29.588C216.134 29.588 215.728 29.7 215.401 29.924C215.074 30.148 214.832 30.456 214.673 30.848C214.514 31.24 214.435 31.702 214.435 32.234C214.435 32.738 214.514 33.1907 214.673 33.592C214.832 33.984 215.079 34.2967 215.415 34.53C215.751 34.754 216.18 34.866 216.703 34.866C217.226 34.866 217.655 34.754 217.991 34.53C218.327 34.2967 218.532 34.026 218.607 33.718H220.133C220.03 34.2313 219.82 34.6793 219.503 35.062C219.195 35.4447 218.803 35.7387 218.327 35.944C217.851 36.1493 217.31 36.252 216.703 36.252Z" fill="url(#paint0_linear_40_98)"/>
<defs>
<linearGradient id="paint0_linear_40_98" x1="21" y1="40" x2="224" y2="40" gradientUnits="userSpaceOnUse">
<stop stop-color="#FD7566"/>
<stop offset="1" stop-color="#6AEA5C"/>
</linearGradient>
</defs>
</svg>
