<svg width="220" height="62" viewBox="0 0 220 62" fill="none" xmlns="http://www.w3.org/2000/svg">
<rect width="220" height="62" rx="13" fill="black" fill-opacity="0.7"/>
<path d="M30.19 36V25.78H31.87V36H30.19ZM23.372 36V25.78H25.052V36H23.372ZM24.73 31.646V30.148H30.512V31.646H24.73ZM34.8063 36V28.454H36.4443V36H34.8063ZM33.7003 29.714V28.454H36.4443V29.714H33.7003ZM35.3383 27.404C35.0023 27.404 34.7503 27.3153 34.5823 27.138C34.4236 26.9607 34.3443 26.732 34.3443 26.452C34.3443 26.1813 34.4236 25.9573 34.5823 25.78C34.7503 25.5933 35.0023 25.5 35.3383 25.5C35.6836 25.5 35.9356 25.5933 36.0943 25.78C36.2623 25.9573 36.3463 26.1813 36.3463 26.452C36.3463 26.732 36.2623 26.9607 36.0943 27.138C35.9356 27.3153 35.6836 27.404 35.3383 27.404ZM38.5076 32.794V31.366H43.9396V32.794H38.5076ZM46.1357 36V25.78H47.8157V36H46.1357ZM47.5357 31.59V30.134H51.7777V31.59H47.5357ZM47.5357 27.236V25.78H51.9877V27.236H47.5357ZM54.07 36V28.454H55.708V36H54.07ZM52.964 29.714V28.454H55.708V29.714H52.964ZM54.602 27.404C54.266 27.404 54.014 27.3153 53.846 27.138C53.6873 26.9607 53.608 26.732 53.608 26.452C53.608 26.1813 53.6873 25.9573 53.846 25.78C54.014 25.5933 54.266 25.5 54.602 25.5C54.9473 25.5 55.1993 25.5933 55.358 25.78C55.526 25.9573 55.61 26.1813 55.61 26.452C55.61 26.732 55.526 26.9607 55.358 27.138C55.1993 27.3153 54.9473 27.404 54.602 27.404ZM61.2853 36.252C60.744 36.252 60.2493 36.154 59.8013 35.958C59.3626 35.762 58.9753 35.4867 58.6393 35.132C58.3126 34.7773 58.0606 34.3667 57.8833 33.9C57.706 33.4333 57.6173 32.9247 57.6173 32.374V32.108C57.6173 31.5667 57.7013 31.0627 57.8693 30.596C58.0466 30.12 58.294 29.7047 58.6113 29.35C58.9286 28.9953 59.3066 28.72 59.7453 28.524C60.1933 28.3187 60.688 28.216 61.2293 28.216C61.808 28.216 62.326 28.342 62.7833 28.594C63.25 28.8367 63.6233 29.2147 63.9033 29.728C64.1926 30.232 64.3513 30.876 64.3793 31.66L63.8193 30.89V25.78H65.4573V36H64.1553V32.724H64.5193C64.4913 33.536 64.3233 34.2033 64.0153 34.726C63.7166 35.2487 63.3293 35.636 62.8533 35.888C62.3773 36.1307 61.8546 36.252 61.2853 36.252ZM61.5933 34.838C62.0133 34.838 62.3913 34.7447 62.7273 34.558C63.0726 34.3713 63.348 34.1007 63.5533 33.746C63.768 33.382 63.8753 32.9573 63.8753 32.472V31.87C63.8753 31.394 63.768 30.988 63.5533 30.652C63.3386 30.316 63.0586 30.0593 62.7133 29.882C62.368 29.7047 61.99 29.616 61.5793 29.616C61.122 29.616 60.716 29.728 60.3613 29.952C60.016 30.1667 59.7453 30.47 59.5493 30.862C59.3533 31.254 59.2553 31.7113 59.2553 32.234C59.2553 32.766 59.3533 33.228 59.5493 33.62C59.7546 34.012 60.0346 34.3153 60.3893 34.53C60.744 34.7353 61.1453 34.838 61.5933 34.838ZM71.16 36.252C70.5067 36.252 69.9373 36.14 69.452 35.916C68.9667 35.692 68.57 35.398 68.262 35.034C67.954 34.6607 67.7207 34.2453 67.562 33.788C67.4127 33.3213 67.338 32.8453 67.338 32.36V32.094C67.338 31.5993 67.4127 31.1233 67.562 30.666C67.7207 30.1993 67.954 29.784 68.262 29.42C68.57 29.0467 68.9573 28.7527 69.424 28.538C69.9 28.314 70.4507 28.202 71.076 28.202C71.888 28.202 72.5647 28.3793 73.106 28.734C73.6473 29.0887 74.0533 29.5507 74.324 30.12C74.5947 30.68 74.73 31.2867 74.73 31.94V32.598H68.038V31.492H73.624L73.176 32.052C73.176 31.548 73.0967 31.114 72.938 30.75C72.7793 30.3767 72.546 30.092 72.238 29.896C71.93 29.6907 71.5427 29.588 71.076 29.588C70.5907 29.588 70.1847 29.7 69.858 29.924C69.5313 30.148 69.2887 30.456 69.13 30.848C68.9713 31.24 68.892 31.702 68.892 32.234C68.892 32.738 68.9713 33.1907 69.13 33.592C69.2887 33.984 69.536 34.2967 69.872 34.53C70.208 34.754 70.6373 34.866 71.16 34.866C71.6827 34.866 72.112 34.754 72.448 34.53C72.784 34.2967 72.9893 34.026 73.064 33.718H74.59C74.4873 34.2313 74.2773 34.6793 73.96 35.062C73.652 35.4447 73.26 35.7387 72.784 35.944C72.308 36.1493 71.7667 36.252 71.16 36.252ZM76.581 36V25.78H78.233V36H76.581ZM75.587 27.04V25.78H78.233V27.04H75.587ZM81.0035 36V28.454H82.6415V36H81.0035ZM79.8975 29.714V28.454H82.6415V29.714H79.8975ZM81.5355 27.404C81.1995 27.404 80.9475 27.3153 80.7795 27.138C80.6209 26.9607 80.5415 26.732 80.5415 26.452C80.5415 26.1813 80.6209 25.9573 80.7795 25.78C80.9475 25.5933 81.1995 25.5 81.5355 25.5C81.8809 25.5 82.1329 25.5933 82.2915 25.78C82.4595 25.9573 82.5435 26.1813 82.5435 26.452C82.5435 26.732 82.4595 26.9607 82.2915 27.138C82.1329 27.3153 81.8809 27.404 81.5355 27.404ZM88.1769 36.084C87.5516 36.084 87.0242 36 86.5949 35.832C86.1656 35.664 85.8389 35.3747 85.6149 34.964C85.4002 34.5533 85.2929 33.998 85.2929 33.298V26.256H86.8469V33.438C86.8469 33.83 86.9496 34.1333 87.1549 34.348C87.3696 34.5533 87.6682 34.656 88.0509 34.656H89.3109V36.084H88.1769ZM84.0469 29.672V28.454H89.3109V29.672H84.0469ZM90.7209 38.954V37.512H91.9669C92.2562 37.512 92.5035 37.4747 92.7089 37.4C92.9142 37.3347 93.0822 37.2133 93.2129 37.036C93.3435 36.868 93.4509 36.6393 93.5349 36.35L95.7329 28.454H97.3149L94.9349 36.742C94.7855 37.2647 94.5755 37.6893 94.3049 38.016C94.0435 38.3427 93.7075 38.5807 93.2969 38.73C92.8955 38.8793 92.4102 38.954 91.8409 38.954H90.7209ZM93.0449 35.832V34.502H94.6689V35.832H93.0449ZM92.6389 35.832L90.0769 28.454H91.7429L94.1929 35.832H92.6389ZM102.122 36V25.78H103.802V36H102.122ZM103.522 36V34.502H108.072V36H103.522ZM112.859 36.252C112.206 36.252 111.637 36.14 111.151 35.916C110.666 35.692 110.269 35.398 109.961 35.034C109.653 34.6607 109.42 34.2453 109.261 33.788C109.112 33.3213 109.037 32.8453 109.037 32.36V32.094C109.037 31.5993 109.112 31.1233 109.261 30.666C109.42 30.1993 109.653 29.784 109.961 29.42C110.269 29.0467 110.657 28.7527 111.123 28.538C111.599 28.314 112.15 28.202 112.775 28.202C113.587 28.202 114.264 28.3793 114.805 28.734C115.347 29.0887 115.753 29.5507 116.023 30.12C116.294 30.68 116.429 31.2867 116.429 31.94V32.598H109.737V31.492H115.323L114.875 32.052C114.875 31.548 114.796 31.114 114.637 30.75C114.479 30.3767 114.245 30.092 113.937 29.896C113.629 29.6907 113.242 29.588 112.775 29.588C112.29 29.588 111.884 29.7 111.557 29.924C111.231 30.148 110.988 30.456 110.829 30.848C110.671 31.24 110.591 31.702 110.591 32.234C110.591 32.738 110.671 33.1907 110.829 33.592C110.988 33.984 111.235 34.2967 111.571 34.53C111.907 34.754 112.337 34.866 112.859 34.866C113.382 34.866 113.811 34.754 114.147 34.53C114.483 34.2967 114.689 34.026 114.763 33.718H116.289C116.187 34.2313 115.977 34.6793 115.659 35.062C115.351 35.4447 114.959 35.7387 114.483 35.944C114.007 36.1493 113.466 36.252 112.859 36.252ZM118.196 36V28.454H119.498V31.688H119.344C119.344 30.9413 119.442 30.3113 119.638 29.798C119.844 29.2847 120.152 28.8973 120.562 28.636C120.973 28.3653 121.482 28.23 122.088 28.23H122.158C123.092 28.23 123.787 28.524 124.244 29.112C124.702 29.7 124.93 30.5587 124.93 31.688V36H123.292V31.464C123.292 30.9413 123.143 30.5213 122.844 30.204C122.546 29.8773 122.135 29.714 121.612 29.714C121.08 29.714 120.651 29.882 120.324 30.218C119.998 30.5447 119.834 30.9833 119.834 31.534V36H118.196ZM130.342 36.252C129.801 36.252 129.306 36.154 128.858 35.958C128.419 35.762 128.032 35.4867 127.696 35.132C127.369 34.7773 127.117 34.3667 126.94 33.9C126.763 33.4333 126.674 32.9247 126.674 32.374V32.108C126.674 31.5667 126.758 31.0627 126.926 30.596C127.103 30.12 127.351 29.7047 127.668 29.35C127.985 28.9953 128.363 28.72 128.802 28.524C129.25 28.3187 129.745 28.216 130.286 28.216C130.865 28.216 131.383 28.342 131.84 28.594C132.307 28.8367 132.68 29.2147 132.96 29.728C133.249 30.232 133.408 30.876 133.436 31.66L132.876 30.89V25.78H134.514V36H133.212V32.724H133.576C133.548 33.536 133.38 34.2033 133.072 34.726C132.773 35.2487 132.386 35.636 131.91 35.888C131.434 36.1307 130.911 36.252 130.342 36.252ZM130.65 34.838C131.07 34.838 131.448 34.7447 131.784 34.558C132.129 34.3713 132.405 34.1007 132.61 33.746C132.825 33.382 132.932 32.9573 132.932 32.472V31.87C132.932 31.394 132.825 30.988 132.61 30.652C132.395 30.316 132.115 30.0593 131.77 29.882C131.425 29.7047 131.047 29.616 130.636 29.616C130.179 29.616 129.773 29.728 129.418 29.952C129.073 30.1667 128.802 30.47 128.606 30.862C128.41 31.254 128.312 31.7113 128.312 32.234C128.312 32.766 128.41 33.228 128.606 33.62C128.811 34.012 129.091 34.3153 129.446 34.53C129.801 34.7353 130.202 34.838 130.65 34.838ZM137.291 36V28.454H138.929V36H137.291ZM136.185 29.714V28.454H138.929V29.714H136.185ZM137.823 27.404C137.487 27.404 137.235 27.3153 137.067 27.138C136.908 26.9607 136.829 26.732 136.829 26.452C136.829 26.1813 136.908 25.9573 137.067 25.78C137.235 25.5933 137.487 25.5 137.823 25.5C138.168 25.5 138.42 25.5933 138.579 25.78C138.747 25.9573 138.831 26.1813 138.831 26.452C138.831 26.732 138.747 26.9607 138.579 27.138C138.42 27.3153 138.168 27.404 137.823 27.404ZM141.37 36V28.454H142.672V31.688H142.518C142.518 30.9413 142.616 30.3113 142.812 29.798C143.017 29.2847 143.325 28.8973 143.736 28.636C144.147 28.3653 144.655 28.23 145.262 28.23H145.332C146.265 28.23 146.961 28.524 147.418 29.112C147.875 29.7 148.104 30.5587 148.104 31.688V36H146.466V31.464C146.466 30.9413 146.317 30.5213 146.018 30.204C145.719 29.8773 145.309 29.714 144.786 29.714C144.254 29.714 143.825 29.882 143.498 30.218C143.171 30.5447 143.008 30.9833 143.008 31.534V36H141.37ZM153.264 38.954C152.909 38.954 152.55 38.94 152.186 38.912C151.822 38.884 151.481 38.8467 151.164 38.8V37.414C151.5 37.4607 151.854 37.498 152.228 37.526C152.61 37.5633 152.965 37.582 153.292 37.582C153.945 37.582 154.468 37.498 154.86 37.33C155.261 37.162 155.55 36.9007 155.728 36.546C155.914 36.2007 156.008 35.748 156.008 35.188V33.732L156.442 32.724C156.414 33.452 156.26 34.0633 155.98 34.558C155.709 35.0527 155.345 35.426 154.888 35.678C154.44 35.93 153.926 36.056 153.348 36.056C152.825 36.056 152.349 35.958 151.92 35.762C151.49 35.566 151.122 35.2907 150.814 34.936C150.506 34.5813 150.268 34.1753 150.1 33.718C149.932 33.2513 149.848 32.7567 149.848 32.234V31.968C149.848 31.436 149.932 30.9413 150.1 30.484C150.277 30.0267 150.524 29.63 150.842 29.294C151.159 28.9487 151.537 28.6827 151.976 28.496C152.424 28.3093 152.914 28.216 153.446 28.216C154.062 28.216 154.603 28.3513 155.07 28.622C155.546 28.8833 155.919 29.2707 156.19 29.784C156.46 30.2973 156.605 30.9227 156.624 31.66L156.26 31.702V28.454H157.562V35.104C157.562 36.0187 157.412 36.756 157.114 37.316C156.824 37.8853 156.362 38.3007 155.728 38.562C155.102 38.8233 154.281 38.954 153.264 38.954ZM153.754 34.6C154.164 34.6 154.538 34.5113 154.874 34.334C155.219 34.1473 155.49 33.886 155.686 33.55C155.891 33.2047 155.994 32.794 155.994 32.318V31.744C155.994 31.2773 155.886 30.8853 155.672 30.568C155.466 30.2413 155.196 29.994 154.86 29.826C154.524 29.658 154.16 29.574 153.768 29.574C153.32 29.574 152.923 29.6813 152.578 29.896C152.232 30.1013 151.962 30.3953 151.766 30.778C151.579 31.1513 151.486 31.59 151.486 32.094C151.486 32.6073 151.584 33.0553 151.78 33.438C151.976 33.8113 152.242 34.1007 152.578 34.306C152.923 34.502 153.315 34.6 153.754 34.6ZM164.553 32.654V31.184H166.681C167.129 31.184 167.498 31.1 167.787 30.932C168.086 30.7547 168.315 30.5167 168.473 30.218C168.632 29.91 168.711 29.5647 168.711 29.182C168.711 28.79 168.632 28.4447 168.473 28.146C168.315 27.838 168.086 27.6 167.787 27.432C167.498 27.264 167.129 27.18 166.681 27.18H164.553V25.71H166.485C167.335 25.71 168.049 25.85 168.627 26.13C169.215 26.4007 169.659 26.788 169.957 27.292C170.265 27.7867 170.419 28.3793 170.419 29.07V29.294C170.419 29.9753 170.265 30.568 169.957 31.072C169.659 31.576 169.215 31.968 168.627 32.248C168.049 32.5187 167.335 32.654 166.485 32.654H164.553ZM163.153 36V25.71H164.833V36H163.153ZM176.545 36V33.746H176.279V31.198C176.279 30.7313 176.158 30.3767 175.915 30.134C175.672 29.8913 175.313 29.77 174.837 29.77C174.576 29.77 174.286 29.7747 173.969 29.784C173.652 29.7933 173.339 29.8073 173.031 29.826C172.732 29.8353 172.466 29.8493 172.233 29.868V28.454C172.438 28.4353 172.662 28.4213 172.905 28.412C173.157 28.3933 173.414 28.3793 173.675 28.37C173.946 28.3607 174.202 28.356 174.445 28.356C175.21 28.356 175.845 28.454 176.349 28.65C176.853 28.846 177.226 29.1587 177.469 29.588C177.721 30.008 177.847 30.5727 177.847 31.282V36H176.545ZM174.095 36.196C173.544 36.196 173.064 36.1027 172.653 35.916C172.242 35.72 171.925 35.44 171.701 35.076C171.477 34.7027 171.365 34.2593 171.365 33.746C171.365 33.2047 171.491 32.7567 171.743 32.402C172.004 32.0473 172.373 31.7813 172.849 31.604C173.325 31.4267 173.894 31.338 174.557 31.338H176.447V32.416H174.515C174.02 32.416 173.642 32.5373 173.381 32.78C173.12 33.0133 172.989 33.3213 172.989 33.704C172.989 34.0867 173.12 34.3947 173.381 34.628C173.642 34.852 174.02 34.964 174.515 34.964C174.804 34.964 175.08 34.9127 175.341 34.81C175.602 34.698 175.817 34.516 175.985 34.264C176.162 34.012 176.26 33.6573 176.279 33.2L176.699 33.746C176.652 34.278 176.522 34.726 176.307 35.09C176.102 35.4447 175.812 35.72 175.439 35.916C175.075 36.1027 174.627 36.196 174.095 36.196ZM183.014 38.954C182.659 38.954 182.3 38.94 181.936 38.912C181.572 38.884 181.231 38.8467 180.914 38.8V37.414C181.25 37.4607 181.604 37.498 181.978 37.526C182.36 37.5633 182.715 37.582 183.042 37.582C183.695 37.582 184.218 37.498 184.61 37.33C185.011 37.162 185.3 36.9007 185.478 36.546C185.664 36.2007 185.758 35.748 185.758 35.188V33.732L186.192 32.724C186.164 33.452 186.01 34.0633 185.73 34.558C185.459 35.0527 185.095 35.426 184.638 35.678C184.19 35.93 183.676 36.056 183.098 36.056C182.575 36.056 182.099 35.958 181.67 35.762C181.24 35.566 180.872 35.2907 180.564 34.936C180.256 34.5813 180.018 34.1753 179.85 33.718C179.682 33.2513 179.598 32.7567 179.598 32.234V31.968C179.598 31.436 179.682 30.9413 179.85 30.484C180.027 30.0267 180.274 29.63 180.592 29.294C180.909 28.9487 181.287 28.6827 181.726 28.496C182.174 28.3093 182.664 28.216 183.196 28.216C183.812 28.216 184.353 28.3513 184.82 28.622C185.296 28.8833 185.669 29.2707 185.94 29.784C186.21 30.2973 186.355 30.9227 186.374 31.66L186.01 31.702V28.454H187.312V35.104C187.312 36.0187 187.162 36.756 186.864 37.316C186.574 37.8853 186.112 38.3007 185.478 38.562C184.852 38.8233 184.031 38.954 183.014 38.954ZM183.504 34.6C183.914 34.6 184.288 34.5113 184.624 34.334C184.969 34.1473 185.24 33.886 185.436 33.55C185.641 33.2047 185.744 32.794 185.744 32.318V31.744C185.744 31.2773 185.636 30.8853 185.422 30.568C185.216 30.2413 184.946 29.994 184.61 29.826C184.274 29.658 183.91 29.574 183.518 29.574C183.07 29.574 182.673 29.6813 182.328 29.896C181.982 30.1013 181.712 30.3953 181.516 30.778C181.329 31.1513 181.236 31.59 181.236 32.094C181.236 32.6073 181.334 33.0553 181.53 33.438C181.726 33.8113 181.992 34.1007 182.328 34.306C182.673 34.502 183.065 34.6 183.504 34.6ZM192.922 36.252C192.268 36.252 191.699 36.14 191.214 35.916C190.728 35.692 190.332 35.398 190.024 35.034C189.716 34.6607 189.482 34.2453 189.324 33.788C189.174 33.3213 189.1 32.8453 189.1 32.36V32.094C189.1 31.5993 189.174 31.1233 189.324 30.666C189.482 30.1993 189.716 29.784 190.024 29.42C190.332 29.0467 190.719 28.7527 191.186 28.538C191.662 28.314 192.212 28.202 192.838 28.202C193.65 28.202 194.326 28.3793 194.868 28.734C195.409 29.0887 195.815 29.5507 196.086 30.12C196.356 30.68 196.492 31.2867 196.492 31.94V32.598H189.8V31.492H195.386L194.938 32.052C194.938 31.548 194.858 31.114 194.7 30.75C194.541 30.3767 194.308 30.092 194 29.896C193.692 29.6907 193.304 29.588 192.838 29.588C192.352 29.588 191.946 29.7 191.62 29.924C191.293 30.148 191.05 30.456 190.892 30.848C190.733 31.24 190.654 31.702 190.654 32.234C190.654 32.738 190.733 33.1907 190.892 33.592C191.05 33.984 191.298 34.2967 191.634 34.53C191.97 34.754 192.399 34.866 192.922 34.866C193.444 34.866 193.874 34.754 194.21 34.53C194.546 34.2967 194.751 34.026 194.826 33.718H196.352C196.249 34.2313 196.039 34.6793 195.722 35.062C195.414 35.4447 195.022 35.7387 194.546 35.944C194.07 36.1493 193.528 36.252 192.922 36.252Z" fill="url(#paint0_linear_40_101)"/>
<defs>
<linearGradient id="paint0_linear_40_101" x1="16" y1="36" x2="216" y2="36" gradientUnits="userSpaceOnUse">
<stop stop-color="#0CCE84"/>
<stop offset="0.944265" stop-color="#FF2EB8"/>
</linearGradient>
</defs>
</svg>
