<svg width="225" height="61" viewBox="0 0 225 61" fill="none" xmlns="http://www.w3.org/2000/svg">
<rect width="225" height="61" rx="5" fill="#27292C"/>
<path d="M25.4233 35.266C24.4993 35.266 23.6967 35.1027 23.0153 34.776C22.3433 34.4493 21.7833 34.0247 21.3353 33.502C20.8967 32.97 20.5653 32.4007 20.3413 31.794C20.1267 31.178 20.0193 30.5853 20.0193 30.016V29.708C20.0193 29.0827 20.1313 28.462 20.3553 27.846C20.5793 27.2207 20.9153 26.656 21.3633 26.152C21.8207 25.648 22.3853 25.2467 23.0573 24.948C23.7293 24.64 24.518 24.486 25.4233 24.486C26.3193 24.486 27.1033 24.64 27.7753 24.948C28.4473 25.2467 29.0073 25.648 29.4553 26.152C29.9127 26.656 30.2533 27.2207 30.4773 27.846C30.7013 28.462 30.8133 29.0827 30.8133 29.708V30.016C30.8133 30.5853 30.7013 31.178 30.4773 31.794C30.2627 32.4007 29.9313 32.97 29.4833 33.502C29.0447 34.0247 28.4847 34.4493 27.8033 34.776C27.1313 35.1027 26.338 35.266 25.4233 35.266ZM25.4233 33.418C25.946 33.418 26.4127 33.3247 26.8233 33.138C27.2433 32.9513 27.598 32.6947 27.8873 32.368C28.186 32.032 28.41 31.654 28.5593 31.234C28.718 30.8047 28.7973 30.352 28.7973 29.876C28.7973 29.3627 28.718 28.8913 28.5593 28.462C28.41 28.0327 28.186 27.6593 27.8873 27.342C27.598 27.0247 27.2433 26.7773 26.8233 26.6C26.4033 26.4227 25.9367 26.334 25.4233 26.334C24.9007 26.334 24.4293 26.4227 24.0093 26.6C23.5893 26.7773 23.23 27.0247 22.9313 27.342C22.642 27.6593 22.418 28.0327 22.2593 28.462C22.11 28.8913 22.0353 29.3627 22.0353 29.876C22.0353 30.352 22.11 30.8047 22.2593 31.234C22.418 31.654 22.642 32.032 22.9313 32.368C23.23 32.6947 23.5893 32.9513 24.0093 33.138C24.4293 33.3247 24.9007 33.418 25.4233 33.418ZM32.5806 35V27.398H34.1206V30.66H33.9806C33.9806 29.8853 34.0833 29.2413 34.2886 28.728C34.4939 28.2053 34.7973 27.8133 35.1986 27.552C35.6093 27.2907 36.1179 27.16 36.7246 27.16H36.8086C37.7139 27.16 38.3999 27.454 38.8666 28.042C39.3333 28.6207 39.5666 29.4887 39.5666 30.646V35H37.6206V30.478C37.6206 30.0113 37.4853 29.6333 37.2146 29.344C36.9533 29.0547 36.5893 28.91 36.1226 28.91C35.6466 28.91 35.2593 29.0593 34.9606 29.358C34.6713 29.6473 34.5266 30.0393 34.5266 30.534V35H32.5806ZM41.7567 35V24.78H43.7027V35H41.7567ZM40.8047 26.236V24.78H43.7027V26.236H40.8047ZM46.2884 35V27.398H48.2344V35H46.2884ZM45.2244 28.854V27.398H48.2344V28.854H45.2244ZM47.0024 26.488C46.6197 26.488 46.335 26.39 46.1484 26.194C45.971 25.9887 45.8824 25.7367 45.8824 25.438C45.8824 25.1207 45.971 24.864 46.1484 24.668C46.335 24.472 46.6197 24.374 47.0024 24.374C47.385 24.374 47.665 24.472 47.8424 24.668C48.0197 24.864 48.1084 25.1207 48.1084 25.438C48.1084 25.7367 48.0197 25.9887 47.8424 26.194C47.665 26.39 47.385 26.488 47.0024 26.488ZM50.4771 35V27.398H52.0171V30.66H51.8771C51.8771 29.8853 51.9798 29.2413 52.1851 28.728C52.3904 28.2053 52.6938 27.8133 53.0951 27.552C53.5058 27.2907 54.0144 27.16 54.6211 27.16H54.7051C55.6104 27.16 56.2964 27.454 56.7631 28.042C57.2298 28.6207 57.4631 29.4887 57.4631 30.646V35H55.5171V30.478C55.5171 30.0113 55.3818 29.6333 55.1111 29.344C54.8498 29.0547 54.4858 28.91 54.0191 28.91C53.5431 28.91 53.1558 29.0593 52.8571 29.358C52.5678 29.6473 52.4231 30.0393 52.4231 30.534V35H50.4771ZM62.9572 35.266C62.3039 35.266 61.7299 35.154 61.2352 34.93C60.7499 34.706 60.3439 34.4073 60.0172 34.034C59.6999 33.6513 59.4572 33.2267 59.2892 32.76C59.1306 32.2933 59.0512 31.8173 59.0512 31.332V31.066C59.0512 30.562 59.1306 30.0767 59.2892 29.61C59.4572 29.134 59.6999 28.714 60.0172 28.35C60.3439 27.9767 60.7452 27.6827 61.2212 27.468C61.6972 27.244 62.2479 27.132 62.8732 27.132C63.6946 27.132 64.3806 27.314 64.9312 27.678C65.4912 28.0327 65.9112 28.504 66.1912 29.092C66.4712 29.6707 66.6112 30.296 66.6112 30.968V31.668H59.8772V30.478H65.3932L64.7912 31.066C64.7912 30.5807 64.7212 30.1653 64.5812 29.82C64.4412 29.4747 64.2266 29.2087 63.9372 29.022C63.6572 28.8353 63.3026 28.742 62.8732 28.742C62.4439 28.742 62.0799 28.84 61.7812 29.036C61.4826 29.232 61.2539 29.5167 61.0952 29.89C60.9459 30.254 60.8712 30.6927 60.8712 31.206C60.8712 31.682 60.9459 32.1067 61.0952 32.48C61.2446 32.844 61.4732 33.1333 61.7812 33.348C62.0892 33.5533 62.4812 33.656 62.9572 33.656C63.4332 33.656 63.8206 33.5627 64.1192 33.376C64.4179 33.18 64.6092 32.942 64.6932 32.662H66.4852C66.3732 33.1847 66.1586 33.642 65.8412 34.034C65.5239 34.426 65.1179 34.7293 64.6232 34.944C64.1379 35.1587 63.5826 35.266 62.9572 35.266ZM74.8983 35.266C73.993 35.266 73.2277 35.1213 72.6023 34.832C71.9863 34.5427 71.515 34.146 71.1883 33.642C70.8617 33.1287 70.6983 32.55 70.6983 31.906H72.6443C72.6443 32.1767 72.719 32.4427 72.8683 32.704C73.0177 32.956 73.2557 33.1613 73.5823 33.32C73.9183 33.4787 74.357 33.558 74.8983 33.558C75.3837 33.558 75.7897 33.488 76.1163 33.348C76.443 33.208 76.6857 33.026 76.8443 32.802C77.003 32.5687 77.0823 32.3073 77.0823 32.018C77.0823 31.654 76.9283 31.3647 76.6203 31.15C76.3123 30.926 75.8363 30.786 75.1923 30.73L74.2963 30.66C73.3163 30.576 72.5323 30.2727 71.9443 29.75C71.3657 29.218 71.0763 28.518 71.0763 27.65C71.0763 26.9967 71.2303 26.4367 71.5383 25.97C71.8463 25.494 72.2757 25.13 72.8263 24.878C73.3863 24.6167 74.0397 24.486 74.7863 24.486C75.561 24.486 76.2283 24.6213 76.7883 24.892C77.3483 25.1627 77.7823 25.5453 78.0903 26.04C78.3983 26.5253 78.5523 27.0993 78.5523 27.762H76.6063C76.6063 27.482 76.5363 27.2253 76.3963 26.992C76.2657 26.7493 76.065 26.558 75.7943 26.418C75.533 26.2687 75.197 26.194 74.7863 26.194C74.3943 26.194 74.0677 26.2593 73.8063 26.39C73.545 26.5207 73.349 26.698 73.2183 26.922C73.0877 27.146 73.0223 27.3887 73.0223 27.65C73.0223 27.9673 73.139 28.2473 73.3723 28.49C73.6057 28.7233 73.9743 28.8587 74.4783 28.896L75.3743 28.98C76.1023 29.036 76.7417 29.19 77.2923 29.442C77.843 29.694 78.2677 30.0347 78.5663 30.464C78.8743 30.8933 79.0283 31.4113 79.0283 32.018C79.0283 32.662 78.8603 33.2313 78.5243 33.726C78.1883 34.2113 77.7077 34.5893 77.0823 34.86C76.4663 35.1307 75.7383 35.266 74.8983 35.266ZM83.2819 35.238C82.4046 35.238 81.7233 34.9487 81.2379 34.37C80.7619 33.7913 80.5239 32.9327 80.5239 31.794V27.384H82.4699V31.962C82.4699 32.4287 82.6006 32.802 82.8619 33.082C83.1233 33.3527 83.4779 33.488 83.9259 33.488C84.3739 33.488 84.7379 33.3433 85.0179 33.054C85.3073 32.7647 85.4519 32.3727 85.4519 31.878V27.384H87.3979V35H85.8579V31.766H86.0119C86.0119 32.5313 85.9139 33.1707 85.7179 33.684C85.5219 34.1973 85.2279 34.5847 84.8359 34.846C84.4439 35.1073 83.9539 35.238 83.3659 35.238H83.2819ZM89.6333 37.8V27.398H91.1733V30.674L90.9353 30.66C90.9727 29.8853 91.1313 29.2367 91.4113 28.714C91.7007 28.1913 92.0833 27.804 92.5593 27.552C93.0353 27.2907 93.5673 27.16 94.1553 27.16C94.6967 27.16 95.182 27.258 95.6113 27.454C96.05 27.65 96.4233 27.9253 96.7313 28.28C97.0487 28.6347 97.2913 29.05 97.4593 29.526C97.6273 29.9927 97.7113 30.4967 97.7113 31.038V31.332C97.7113 31.8827 97.6273 32.396 97.4593 32.872C97.3007 33.3387 97.0627 33.754 96.7453 34.118C96.4373 34.4727 96.064 34.7527 95.6253 34.958C95.1867 35.154 94.6967 35.252 94.1553 35.252C93.586 35.252 93.0633 35.1353 92.5873 34.902C92.1207 34.6593 91.7427 34.2907 91.4533 33.796C91.164 33.292 91.0007 32.6433 90.9633 31.85L91.5793 32.788V37.8H89.6333ZM93.6653 33.614C94.0853 33.614 94.4493 33.5113 94.7573 33.306C95.0747 33.1007 95.322 32.816 95.4993 32.452C95.6767 32.0787 95.7653 31.6587 95.7653 31.192C95.7653 30.7067 95.6767 30.2867 95.4993 29.932C95.322 29.5773 95.0747 29.302 94.7573 29.106C94.4493 28.9007 94.0853 28.798 93.6653 28.798C93.2827 28.798 92.928 28.882 92.6013 29.05C92.284 29.218 92.0227 29.4653 91.8173 29.792C91.6213 30.1187 91.5233 30.5107 91.5233 30.968V31.528C91.5233 31.9667 91.626 32.34 91.8313 32.648C92.0367 32.956 92.3027 33.194 92.6293 33.362C92.956 33.53 93.3013 33.614 93.6653 33.614ZM99.4224 37.8V27.398H100.962V30.674L100.724 30.66C100.762 29.8853 100.92 29.2367 101.2 28.714C101.49 28.1913 101.872 27.804 102.348 27.552C102.824 27.2907 103.356 27.16 103.944 27.16C104.486 27.16 104.971 27.258 105.4 27.454C105.839 27.65 106.212 27.9253 106.52 28.28C106.838 28.6347 107.08 29.05 107.248 29.526C107.416 29.9927 107.5 30.4967 107.5 31.038V31.332C107.5 31.8827 107.416 32.396 107.248 32.872C107.09 33.3387 106.852 33.754 106.534 34.118C106.226 34.4727 105.853 34.7527 105.414 34.958C104.976 35.154 104.486 35.252 103.944 35.252C103.375 35.252 102.852 35.1353 102.376 34.902C101.91 34.6593 101.532 34.2907 101.242 33.796C100.953 33.292 100.79 32.6433 100.752 31.85L101.368 32.788V37.8H99.4224ZM103.454 33.614C103.874 33.614 104.238 33.5113 104.546 33.306C104.864 33.1007 105.111 32.816 105.288 32.452C105.466 32.0787 105.554 31.6587 105.554 31.192C105.554 30.7067 105.466 30.2867 105.288 29.932C105.111 29.5773 104.864 29.302 104.546 29.106C104.238 28.9007 103.874 28.798 103.454 28.798C103.072 28.798 102.717 28.882 102.39 29.05C102.073 29.218 101.812 29.4653 101.606 29.792C101.41 30.1187 101.312 30.5107 101.312 30.968V31.528C101.312 31.9667 101.415 32.34 101.62 32.648C101.826 32.956 102.092 33.194 102.418 33.362C102.745 33.53 103.09 33.614 103.454 33.614ZM112.865 35.266C112.193 35.266 111.601 35.1587 111.087 34.944C110.574 34.7293 110.14 34.44 109.785 34.076C109.431 33.7027 109.16 33.2827 108.973 32.816C108.796 32.3493 108.707 31.864 108.707 31.36V31.066C108.707 30.5433 108.801 30.0487 108.987 29.582C109.183 29.106 109.459 28.686 109.813 28.322C110.177 27.9487 110.616 27.6593 111.129 27.454C111.643 27.2393 112.221 27.132 112.865 27.132C113.509 27.132 114.088 27.2393 114.601 27.454C115.115 27.6593 115.549 27.9487 115.903 28.322C116.267 28.686 116.543 29.106 116.729 29.582C116.916 30.0487 117.009 30.5433 117.009 31.066V31.36C117.009 31.864 116.916 32.3493 116.729 32.816C116.552 33.2827 116.286 33.7027 115.931 34.076C115.577 34.44 115.143 34.7293 114.629 34.944C114.116 35.1587 113.528 35.266 112.865 35.266ZM112.865 33.6C113.341 33.6 113.743 33.4973 114.069 33.292C114.396 33.0773 114.643 32.7927 114.811 32.438C114.979 32.074 115.063 31.6633 115.063 31.206C115.063 30.7393 114.975 30.3287 114.797 29.974C114.629 29.61 114.377 29.3253 114.041 29.12C113.715 28.9053 113.323 28.798 112.865 28.798C112.408 28.798 112.011 28.9053 111.675 29.12C111.349 29.3253 111.097 29.61 110.919 29.974C110.742 30.3287 110.653 30.7393 110.653 31.206C110.653 31.6633 110.737 32.074 110.905 32.438C111.083 32.7927 111.335 33.0773 111.661 33.292C111.988 33.4973 112.389 33.6 112.865 33.6ZM118.713 35V27.398H120.253V30.618H120.211C120.211 29.526 120.445 28.7 120.911 28.14C121.378 27.58 122.064 27.3 122.969 27.3H123.249V28.994H122.717C122.064 28.994 121.555 29.1713 121.191 29.526C120.837 29.8713 120.659 30.3753 120.659 31.038V35H118.713ZM128.019 35.098C127.319 35.098 126.741 35.0093 126.283 34.832C125.835 34.6453 125.499 34.3373 125.275 33.908C125.051 33.4693 124.939 32.8813 124.939 32.144L124.953 25.256H126.773L126.759 32.27C126.759 32.6433 126.857 32.9327 127.053 33.138C127.259 33.334 127.548 33.432 127.921 33.432H129.111V35.098H128.019ZM123.735 28.826V27.398H129.111V28.826H123.735Z" fill="url(#paint0_linear_40_302)"/>
<circle cx="191" cy="30" r="16" fill="#363A3E"/>
<path d="M196 30.001L188.5 34.3304L188.501 25.6701L196 30.001Z" fill="#F08D08"/>
<defs>
<linearGradient id="paint0_linear_40_302" x1="12" y1="37" x2="149.5" y2="35" gradientUnits="userSpaceOnUse">
<stop stop-color="#EF8F00"/>
<stop offset="0.779403" stop-color="#FF7667"/>
</linearGradient>
</defs>
</svg>
